<?xml version="1.0" encoding="UTF-8"?>
<svg width="154px" height="153px" viewBox="0 0 154 153" version="1.1" xmlns="http://www.w3.org/2000/svg" xmlns:xlink="http://www.w3.org/1999/xlink">
    <title>svg</title>
    <g id="page1" stroke="none" stroke-width="1" fill="none" fill-rule="evenodd">
        <g id="-" transform="translate(-4.000000, 16.000000)" fill-rule="nonzero">
            <g id="svg" transform="translate(81.000000, 60.500000) rotate(-45.000000) translate(-81.000000, -60.500000) translate(11.000000, 23.000000)">
                <path d="M95,58.75 C95,63.5824915 91.0824915,67.5 86.25,67.5 L78.75,67.5 C78.0596441,67.5 77.5,66.9403559 77.5,66.25 L77.5,8.75 C77.5,8.05964406 78.0596441,7.5 78.75,7.5 L86.25,7.5 C91.0824915,7.5 95,11.4175084 95,16.25 L95,27.5 L123.75,27.5 C128.582491,27.5 132.5,31.4175085 132.5,36.25 C132.5,41.0824915 128.582491,45 123.75,45 L95,45 L95,58.75 Z" id="形状结合" fill="#D8D8D8"></path>
                <path d="M86.25,0 C95.2246271,0 102.5,7.27537281 102.5,16.25 L102.5,20 L123.75,20 C132.724627,20 140,27.2753729 140,36.25 C140,45.2246271 132.724627,52.5 123.75,52.5 L102.5,52.5 L102.5,58.75 C102.5,67.7246271 95.2246271,75 86.25,75 L78.75,75 C73.9175085,75 70,71.0824915 70,66.25 L70,52.5 L16.25,52.5 C7.40358177,52.5 0.208214581,45.4310103 0.00443805299,36.6335702 L0,36.25 C0,27.2753729 7.27537281,20 16.25,20 L16.25,20 L70,20 L70,8.75 C70,3.91750844 73.9175085,0 78.75,0 L86.25,0 Z M123.75,45 C128.582491,45 132.5,41.0824915 132.5,36.25 C132.5,31.4175085 128.582491,27.5 123.75,27.5 L95,27.5 L95,16.25 C95,11.4175084 91.0824915,7.5 86.25,7.5 L78.75,7.5 C78.0596441,7.5 77.5,8.05964406 77.5,8.75 L77.5,66.25 C77.5,66.9403559 78.0596441,67.5 78.75,67.5 L86.25,67.5 C91.0824915,67.5 95,63.5824915 95,58.75 L95,45 L123.75,45 Z M70,27.5 L16.25,27.5 C11.4175084,27.5 7.5,31.4175085 7.5,36.25 C7.5,41.0824915 11.4175084,45 16.25,45 L16.25,45 L70,45 L70,27.5 Z" id="形状结合" fill="#969696"></path>
            </g>
        </g>
    </g>
</svg>